HIERARCHY
ROOT pelvis
{
	OFFSET 0.003123 -0.351407 0.012037
	CHANNELS 6 Xposition Yposition Zposition Zrotation Yrotation Xrotation 
	JOINT left_hip
	{
		OFFSET 0.058189 -0.092763 -0.026001
		CHANNELS 3 Zrotation Yrotation Xrotation
		JOINT left_knee
		{
			OFFSET 0.054695 -0.378753 -0.009396
			CHANNELS 3 Zrotation Yrotation Xrotation
			JOINT left_ankle
			{
				OFFSET -0.043453 -0.403059 -0.031876
				CHANNELS 3 Zrotation Yrotation Xrotation
				JOINT left_foot
				{
					OFFSET 0.047257 -0.057997 0.118216
					CHANNELS 3 Zrotation Yrotation Xrotation
					End Site
					{
						OFFSET 0.000000 0.000000 0.000000
					}
				}
			}
		}
	}
	JOINT right_hip
	{
		OFFSET -0.063267 -0.103908 -0.021250
		CHANNELS 3 Zrotation Yrotation Xrotation
		JOINT right_knee
		{
			OFFSET -0.044210 -0.362380 -0.016824
			CHANNELS 3 Zrotation Yrotation Xrotation
			JOINT right_ankle
			{
				OFFSET 0.015417 -0.410728 -0.020192
				CHANNELS 3 Zrotation Yrotation Xrotation
				JOINT right_foot
				{
					OFFSET -0.038812 -0.058328 0.119049
					CHANNELS 3 Zrotation Yrotation Xrotation
					End Site
					{
						OFFSET 0.000000 0.000000 0.000000
					}
				}
			}
		}
	}
	JOINT spine_1
	{
		OFFSET -0.002763 0.109891 -0.027618
		CHANNELS 3 Zrotation Yrotation Xrotation
		JOINT spine_2
		{
			OFFSET 0.009448 0.131853 -0.005940
			CHANNELS 3 Zrotation Yrotation Xrotation
			JOINT spine_3
			{
				OFFSET -0.011330 0.052235 0.028447
				CHANNELS 3 Zrotation Yrotation Xrotation
				JOINT neck
				{
					OFFSET -0.012164 0.165167 -0.031615
					CHANNELS 3 Zrotation Yrotation Xrotation
					JOINT head
					{
						OFFSET 0.024783 0.160452 0.020737
						CHANNELS 3 Zrotation Yrotation Xrotation
						End Site
						{
							OFFSET 0.000000 0.000000 0.000000
						}
					}
				}
				JOINT left_collar
				{
					OFFSET 0.046364 0.084944 -0.007220
					CHANNELS 3 Zrotation Yrotation Xrotation
					JOINT left_shoulder
					{
						OFFSET 0.119239 0.057728 -0.015461
						CHANNELS 3 Zrotation Yrotation Xrotation
						JOINT left_elbow
						{
							OFFSET 0.254123 -0.072151 -0.042459
							CHANNELS 3 Zrotation Yrotation Xrotation
							JOINT left_wrist
							{
								OFFSET 0.251987 0.023221 -0.002472
								CHANNELS 3 Zrotation Yrotation Xrotation
								JOINT left_index_1
								{
									OFFSET 0.101902 -0.008688 0.019351
									CHANNELS 3 Zrotation Yrotation Xrotation
									JOINT left_index_2
									{
										OFFSET 0.030149 -0.011154 0.001151
										CHANNELS 3 Zrotation Yrotation Xrotation
										JOINT left_index_3
										{
											OFFSET 0.006504 -0.021577 -0.002433
											CHANNELS 3 Zrotation Yrotation Xrotation
											End Site
											{
												OFFSET 0.000000 0.000000 0.000000
											}
										}
									}
								}
								JOINT left_middle_1
								{
									OFFSET 0.109398 -0.006328 -0.003981
									CHANNELS 3 Zrotation Yrotation Xrotation
									JOINT left_middle_2
									{
										OFFSET 0.026472 -0.015218 -0.004641
										CHANNELS 3 Zrotation Yrotation Xrotation
										JOINT left_middle_3
										{
											OFFSET 0.005022 -0.023347 -0.001911
											CHANNELS 3 Zrotation Yrotation Xrotation
											End Site
											{
												OFFSET 0.000000 0.000000 0.000000
											}
										}
									}
								}
								JOINT left_pinky_1
								{
									OFFSET 0.084047 -0.014539 -0.043750
									CHANNELS 3 Zrotation Yrotation Xrotation
									JOINT left_pinky_2
									{
										OFFSET 0.012124 -0.014448 -0.005375
										CHANNELS 3 Zrotation Yrotation Xrotation
										JOINT left_pinky_3
										{
											OFFSET 0.003798 -0.018853 0.000167
											CHANNELS 3 Zrotation Yrotation Xrotation
											End Site
											{
												OFFSET 0.000000 0.000000 0.000000
											}
										}
									}
								}
								JOINT left_ring_1
								{
									OFFSET 0.097444 -0.009268 -0.027345
									CHANNELS 3 Zrotation Yrotation Xrotation
									JOINT left_ring_2
									{
										OFFSET 0.023561 -0.016057 -0.001895
										CHANNELS 3 Zrotation Yrotation Xrotation
										JOINT left_ring_3
										{
											OFFSET 0.004257 -0.023548 0.000814
											CHANNELS 3 Zrotation Yrotation Xrotation
											End Site
											{
												OFFSET 0.000000 0.000000 0.000000
											}
										}
									}
								}
								JOINT left_thumb_1
								{
									OFFSET 0.040636 -0.017977 0.025611
									CHANNELS 3 Zrotation Yrotation Xrotation
									JOINT left_thumb_2
									{
										OFFSET 0.021637 -0.017639 0.011623
										CHANNELS 3 Zrotation Yrotation Xrotation
										JOINT left_thumb_3
										{
											OFFSET 0.024002 -0.008356 0.006548
											CHANNELS 3 Zrotation Yrotation Xrotation
											End Site
											{
												OFFSET 0.000000 0.000000 0.000000
											}
										}
									}
								}
							}
						}
					}
				}
				JOINT right_collar
				{
					OFFSET -0.047695 0.084339 -0.013400
					CHANNELS 3 Zrotation Yrotation Xrotation
					JOINT right_shoulder
					{
						OFFSET -0.102578 0.053524 -0.012669
						CHANNELS 3 Zrotation Yrotation Xrotation
						JOINT right_elbow
						{
							OFFSET -0.271150 -0.036492 -0.026467
							CHANNELS 3 Zrotation Yrotation Xrotation
							JOINT right_wrist
							{
								OFFSET -0.249267 -0.004533 -0.015325
								CHANNELS 3 Zrotation Yrotation Xrotation
								JOINT right_index_1
								{
									OFFSET -0.099881 -0.011783 0.019600
									CHANNELS 3 Zrotation Yrotation Xrotation
									JOINT right_index_2
									{
										OFFSET -0.030148 -0.011154 0.001151
										CHANNELS 3 Zrotation Yrotation Xrotation
										JOINT right_index_3
										{
											OFFSET -0.006505 -0.021577 -0.002432
											CHANNELS 3 Zrotation Yrotation Xrotation
											End Site
											{
												OFFSET 0.000000 0.000000 0.000000
											}
										}
									}
								}
								JOINT right_middle_1
								{
									OFFSET -0.107376 -0.009422 -0.003734
									CHANNELS 3 Zrotation Yrotation Xrotation
									JOINT right_middle_2
									{
										OFFSET -0.026472 -0.015218 -0.004641
										CHANNELS 3 Zrotation Yrotation Xrotation
										JOINT right_middle_3
										{
											OFFSET -0.005022 -0.023347 -0.001911
											CHANNELS 3 Zrotation Yrotation Xrotation
											End Site
											{
												OFFSET 0.000000 0.000000 0.000000
											}
										}
									}
								}
								JOINT right_pinky_1
								{
									OFFSET -0.082027 -0.017634 -0.043503
									CHANNELS 3 Zrotation Yrotation Xrotation
									JOINT right_pinky_2
									{
										OFFSET -0.012123 -0.014448 -0.005374
										CHANNELS 3 Zrotation Yrotation Xrotation
										JOINT right_pinky_3
										{
											OFFSET -0.003798 -0.018852 0.000167
											CHANNELS 3 Zrotation Yrotation Xrotation
											End Site
											{
												OFFSET 0.000000 0.000000 0.000000
											}
										}
									}
								}
								JOINT right_ring_1
								{
									OFFSET -0.095423 -0.012362 -0.027099
									CHANNELS 3 Zrotation Yrotation Xrotation
									JOINT right_ring_2
									{
										OFFSET -0.023561 -0.016057 -0.001895
										CHANNELS 3 Zrotation Yrotation Xrotation
										JOINT right_ring_3
										{
											OFFSET -0.004257 -0.023548 0.000816
											CHANNELS 3 Zrotation Yrotation Xrotation
											End Site
											{
												OFFSET 0.000000 0.000000 0.000000
											}
										}
									}
								}
								JOINT right_thumb_1
								{
									OFFSET -0.038613 -0.021074 0.025861
									CHANNELS 3 Zrotation Yrotation Xrotation
									JOINT right_thumb_2
									{
										OFFSET -0.021636 -0.017639 0.011623
										CHANNELS 3 Zrotation Yrotation Xrotation
										JOINT right_thumb_3
										{
											OFFSET -0.024004 -0.008353 0.006547
											CHANNELS 3 Zrotation Yrotation Xrotation
											End Site
											{
												OFFSET 0.000000 0.000000 0.000000
											}
										}
									}
								}
							}
						}
					}
				}
			}
		}
	}
}
MOTION
Frames: 4
Frame Time: 0.050000
0.067161 1.028778 0.258790 -4.067575 -16.688135 -23.274400 1.647945 3.084175 19.440362 4.616749 -0.477193 -0.187960 -10.669479 -2.514597 24.750845 0.000000 0.000000 0.000000 -0.979942 -1.857369 32.984912 -6.344671 1.503498 11.553761 14.471748 2.886947 26.488879 0.000000 0.000000 0.000000 -5.925227 3.497541 76.466599 -2.432425 -8.063902 -34.842692 9.563549 16.203596 10.124313 2.548349 -1.701152 6.682315 0.000000 0.000000 0.000000 4.767179 -14.181592 6.997005 19.857409 -46.993836 -23.957212 16.385767 -23.331453 -2.015119 22.615483 1.357059 -36.389264 14.303090 3.951176 1.864428 10.294565 -2.502853 -13.199069 0.000000 0.000000 0.000000 0.202226 -11.565617 -5.751583 3.654226 -2.865642 -19.014952 0.000000 0.000000 0.000000 7.656546 -22.455606 -32.002862 11.365566 1.634452 8.209072 0.000000 0.000000 0.000000 -2.796725 -19.325413 -11.961559 4.068732 -2.090584 -10.648007 0.000000 0.000000 0.000000 38.541260 23.061018 2.768606 -24.434334 -7.878107 4.802803 0.000000 0.000000 0.000000 -8.093456 23.770730 10.523519 -18.524617 52.835255 -13.381771 -33.242653 16.080590 -2.691371 -16.455295 -3.950122 -38.866169 -9.501669 -17.426139 6.336334 -26.101248 34.989245 -72.649088 0.000000 0.000000 0.000000 14.127872 22.682126 -8.574100 -31.633567 -0.847510 -51.574290 0.000000 0.000000 0.000000 -20.104674 37.165005 -57.218725 -30.998055 0.497744 6.737109 0.000000 0.000000 0.000000 6.225042 39.273110 -20.596290 -45.278446 -3.090426 -13.553350 0.000000 0.000000 0.000000 -48.353283 -26.056988 8.139849 28.253396 12.645896 5.497072 0.000000 0.000000 0.000000 
0.064569 1.028778 0.260605 -3.971321 -16.916544 -22.488919 0.968208 3.004201 18.441041 5.112555 -0.563608 0.043138 -9.648710 -1.296873 24.628671 0.000000 0.000000 0.000000 -1.400636 -1.655958 32.044466 -6.016462 1.379238 10.962063 15.247906 4.316938 25.829061 0.000000 0.000000 0.000000 -4.728079 2.718709 75.964198 -3.095544 -8.114359 -35.520873 8.476809 15.823776 10.676161 2.356301 -1.784663 7.303622 0.000000 0.000000 0.000000 3.238408 -14.995740 7.254817 14.048019 -46.840597 -21.583487 19.171013 -27.601100 -3.095534 24.130898 0.471870 -31.174174 12.444737 3.210883 1.185944 15.262278 -1.447475 -10.982204 0.000000 0.000000 0.000000 3.245386 -11.942947 -5.891416 2.687597 -1.055480 -9.005211 0.000000 0.000000 0.000000 10.737574 -20.535279 -29.166646 10.039353 0.996410 4.824882 0.000000 0.000000 0.000000 -2.045159 -18.090665 -11.243601 15.455293 0.724828 -6.947817 0.000000 0.000000 0.000000 33.893356 22.981070 4.057214 -20.965383 -12.353694 2.628054 0.000000 0.000000 0.000000 -8.297776 24.589592 10.794951 -10.118293 53.704864 -10.056272 -38.549140 18.462932 -3.967626 -14.802005 -3.016116 -36.487847 -10.368787 -8.462509 3.299114 -2.076942 25.457871 -44.239501 0.000000 0.000000 0.000000 10.982386 22.083319 -8.941264 -29.749720 1.366444 -44.916519 0.000000 0.000000 0.000000 -17.546977 34.834834 -53.603982 -22.900410 -0.879201 10.823793 0.000000 0.000000 0.000000 4.657821 34.666800 -19.432050 -31.442605 -1.699418 -13.813527 0.000000 0.000000 0.000000 -38.338351 -21.994127 2.437434 25.367771 9.790696 4.997491 0.000000 0.000000 0.000000 
0.062921 1.027489 0.255160 -2.765955 -14.023954 -22.097949 -0.822008 2.982299 17.389327 5.797860 -0.707487 0.679047 -11.427815 -4.083032 23.307421 0.000000 0.000000 0.000000 -2.702574 -1.529781 32.108534 -3.968027 0.995171 10.138452 13.953651 3.477198 25.309079 0.000000 0.000000 0.000000 -4.940789 1.982056 75.895307 -4.225530 -7.653457 -36.018041 8.160750 13.238597 11.043208 1.271691 -1.343802 6.428012 0.000000 0.000000 0.000000 1.429044 -14.976320 7.141230 8.667010 -48.131683 -20.150300 21.932885 -32.606749 -4.318893 22.829170 0.059445 -28.923459 12.295167 2.651180 0.936190 18.245885 -1.430017 -11.548824 0.000000 0.000000 0.000000 1.249289 -12.146295 -6.024810 7.617547 -0.813939 -10.139465 0.000000 0.000000 0.000000 10.071397 -20.887643 -29.576874 14.119386 1.086080 7.044576 0.000000 0.000000 0.000000 -1.523813 -15.918419 -10.052124 17.101088 0.206658 -12.563949 0.000000 0.000000 0.000000 30.329854 22.960181 5.088713 -18.870478 -10.540634 2.130554 0.000000 0.000000 0.000000 -3.512719 22.775564 11.003317 -4.808195 53.648195 -8.425951 -40.114584 26.417250 -7.542440 -15.383877 -0.872174 -35.327084 -4.943578 -6.489071 1.751914 -5.342321 10.553952 -31.372795 0.000000 0.000000 0.000000 13.655338 20.141448 -7.993789 -17.832372 0.640012 -26.721443 0.000000 0.000000 0.000000 -8.885858 35.395113 -50.162986 -20.929123 -1.515512 13.410668 0.000000 0.000000 0.000000 10.814607 30.857250 -15.368082 -32.521579 -2.111046 -6.067195 0.000000 0.000000 0.000000 -32.168489 -21.497140 2.556843 21.869126 10.849130 3.248425 0.000000 0.000000 0.000000 
0.057032 1.028133 0.250706 -2.737378 -13.859759 -22.955750 -0.493127 2.975585 17.679744 5.373501 -0.847132 1.930535 -10.982826 -3.416775 23.270055 0.000000 0.000000 0.000000 -2.286619 -1.739377 33.251643 -2.878923 0.892912 10.598016 12.975374 1.852143 25.902683 0.000000 0.000000 0.000000 -5.953382 2.719001 77.283042 -2.841991 -8.028227 -36.794267 9.101814 13.050748 12.718198 0.497994 -0.798805 4.457844 0.000000 0.000000 0.000000 -2.027894 -11.657481 5.402264 0.425921 -49.766589 -18.086873 22.714135 -40.476892 -5.623735 20.974888 -1.399518 -25.018106 9.722886 2.054719 0.549113 24.389693 -1.178401 -9.114652 0.000000 0.000000 0.000000 2.184845 -11.483916 -5.824585 16.545193 -0.375050 -7.918183 0.000000 0.000000 0.000000 16.693681 -20.805870 -30.754713 10.327057 2.167628 11.609156 0.000000 0.000000 0.000000 1.715775 -15.556531 -10.552719 15.755704 0.574148 -8.397065 0.000000 0.000000 0.000000 31.031133 24.595386 8.148284 -18.248095 -11.447347 1.853538 0.000000 0.000000 0.000000 -3.984890 20.614797 9.785250 0.943808 57.501033 -6.475088 -36.722724 30.350358 -8.421155 -17.000594 0.764639 -36.313448 -2.716154 -3.689217 0.720705 16.966977 16.312402 -25.870406 0.000000 0.000000 0.000000 24.181180 19.647124 -6.022798 -10.756992 0.691368 -43.489104 0.000000 0.000000 0.000000 0.175006 38.124788 -49.634651 -19.045281 -3.073785 18.959320 0.000000 0.000000 0.000000 21.407297 35.709700 -13.343351 -28.799310 -2.503526 -0.977753 0.000000 0.000000 0.000000 -25.615923 -17.392264 -1.094031 19.412059 3.728856 3.879654 0.000000 0.000000 0.000000 
